<mxfile host="Electron" modified="2023-06-08T22:37:11.174Z" agent="Mozilla/5.0 (Windows NT 10.0; Win64; x64) AppleWebKit/537.36 (KHTML, like Gecko) draw.io/21.3.7 Chrome/112.0.5615.204 Electron/24.5.0 Safari/537.36" etag="RuH1jcFHESh41I9WOSer" version="21.3.7" type="device">
  <diagram name="Page-1" id="j4adZ3EpIKndyzoQfCcA">
    <mxGraphModel dx="546" dy="819" grid="1" gridSize="10" guides="1" tooltips="1" connect="1" arrows="1" fold="1" page="1" pageScale="1" pageWidth="850" pageHeight="1100" math="0" shadow="0">
      <root>
        <mxCell id="0" />
        <mxCell id="1" parent="0" />
        <mxCell id="JJgv2_1WWjT4un0S1-dk-110" style="edgeStyle=orthogonalEdgeStyle;rounded=0;orthogonalLoop=1;jettySize=auto;html=1;exitX=1;exitY=0.25;exitDx=0;exitDy=0;endSize=11;endArrow=diamond;endFill=1;" edge="1" parent="1" source="JJgv2_1WWjT4un0S1-dk-47" target="JJgv2_1WWjT4un0S1-dk-49">
          <mxGeometry relative="1" as="geometry" />
        </mxCell>
        <mxCell id="JJgv2_1WWjT4un0S1-dk-123" style="edgeStyle=orthogonalEdgeStyle;rounded=0;orthogonalLoop=1;jettySize=auto;html=1;exitX=1;exitY=0.75;exitDx=0;exitDy=0;entryX=0;entryY=0.5;entryDx=0;entryDy=0;endArrow=diamond;endFill=1;jumpSize=6;endSize=11;" edge="1" parent="1" source="JJgv2_1WWjT4un0S1-dk-47" target="JJgv2_1WWjT4un0S1-dk-55">
          <mxGeometry relative="1" as="geometry">
            <Array as="points">
              <mxPoint x="140" y="130" />
              <mxPoint x="140" y="130" />
            </Array>
          </mxGeometry>
        </mxCell>
        <mxCell id="JJgv2_1WWjT4un0S1-dk-210" style="edgeStyle=orthogonalEdgeStyle;rounded=0;orthogonalLoop=1;jettySize=auto;html=1;exitX=1;exitY=0;exitDx=0;exitDy=0;entryX=1;entryY=0.5;entryDx=0;entryDy=0;endSize=11;endArrow=diamond;endFill=1;" edge="1" parent="1" source="JJgv2_1WWjT4un0S1-dk-47" target="JJgv2_1WWjT4un0S1-dk-126">
          <mxGeometry relative="1" as="geometry">
            <Array as="points">
              <mxPoint x="460" y="40" />
              <mxPoint x="460" y="145" />
            </Array>
          </mxGeometry>
        </mxCell>
        <mxCell id="JJgv2_1WWjT4un0S1-dk-47" value="Simulation" style="rounded=0;whiteSpace=wrap;html=1;fillColor=#eeeeee;strokeColor=#36393d;" vertex="1" parent="1">
          <mxGeometry x="40" y="40" width="80" height="120" as="geometry" />
        </mxCell>
        <mxCell id="JJgv2_1WWjT4un0S1-dk-49" value="Star" style="rounded=0;whiteSpace=wrap;html=1;fillColor=#eeeeee;strokeColor=#36393d;" vertex="1" parent="1">
          <mxGeometry x="210" y="60" width="80" height="20" as="geometry" />
        </mxCell>
        <mxCell id="JJgv2_1WWjT4un0S1-dk-53" value="250" style="text;html=1;strokeColor=none;fillColor=none;align=center;verticalAlign=middle;whiteSpace=wrap;rounded=0;fontSize=11;" vertex="1" parent="1">
          <mxGeometry x="161" y="46" width="60" height="30" as="geometry" />
        </mxCell>
        <mxCell id="JJgv2_1WWjT4un0S1-dk-69" style="edgeStyle=orthogonalEdgeStyle;rounded=0;orthogonalLoop=1;jettySize=auto;html=1;exitX=0;exitY=0.5;exitDx=0;exitDy=0;entryX=0.25;entryY=1;entryDx=0;entryDy=0;endArrow=block;endFill=0;startSize=6;endSize=8;" edge="1" parent="1" source="JJgv2_1WWjT4un0S1-dk-63" target="JJgv2_1WWjT4un0S1-dk-55">
          <mxGeometry relative="1" as="geometry">
            <mxPoint x="233" y="160" as="targetPoint" />
            <Array as="points">
              <mxPoint x="230" y="210" />
            </Array>
          </mxGeometry>
        </mxCell>
        <mxCell id="JJgv2_1WWjT4un0S1-dk-121" style="edgeStyle=orthogonalEdgeStyle;rounded=0;orthogonalLoop=1;jettySize=auto;html=1;exitX=1;exitY=0.75;exitDx=0;exitDy=0;entryX=0;entryY=0.5;entryDx=0;entryDy=0;startSize=6;jumpSize=11;endSize=11;endArrow=diamond;endFill=1;" edge="1" parent="1" source="JJgv2_1WWjT4un0S1-dk-55">
          <mxGeometry relative="1" as="geometry">
            <mxPoint x="350" y="145" as="targetPoint" />
          </mxGeometry>
        </mxCell>
        <mxCell id="JJgv2_1WWjT4un0S1-dk-124" style="edgeStyle=orthogonalEdgeStyle;rounded=0;orthogonalLoop=1;jettySize=auto;html=1;exitX=1;exitY=0.25;exitDx=0;exitDy=0;entryX=0;entryY=0.5;entryDx=0;entryDy=0;endSize=11;endArrow=diamond;endFill=1;" edge="1" parent="1" source="JJgv2_1WWjT4un0S1-dk-55">
          <mxGeometry relative="1" as="geometry">
            <mxPoint x="350" y="115" as="targetPoint" />
          </mxGeometry>
        </mxCell>
        <mxCell id="JJgv2_1WWjT4un0S1-dk-55" value="PhysicsObject" style="rounded=0;whiteSpace=wrap;html=1;fillColor=#eeeeee;strokeColor=#36393d;" vertex="1" parent="1">
          <mxGeometry x="210" y="100" width="80" height="60" as="geometry" />
        </mxCell>
        <mxCell id="JJgv2_1WWjT4un0S1-dk-58" value="1..." style="text;html=1;strokeColor=none;fillColor=none;align=center;verticalAlign=middle;whiteSpace=wrap;rounded=0;fontSize=11;" vertex="1" parent="1">
          <mxGeometry x="160" y="105" width="60" height="30" as="geometry" />
        </mxCell>
        <mxCell id="JJgv2_1WWjT4un0S1-dk-70" style="edgeStyle=orthogonalEdgeStyle;rounded=0;orthogonalLoop=1;jettySize=auto;html=1;exitX=0;exitY=0.5;exitDx=0;exitDy=0;endArrow=none;endFill=0;" edge="1" parent="1" source="JJgv2_1WWjT4un0S1-dk-61">
          <mxGeometry relative="1" as="geometry">
            <mxPoint x="230" y="180" as="targetPoint" />
            <Array as="points">
              <mxPoint x="250" y="180" />
              <mxPoint x="250" y="180" />
            </Array>
          </mxGeometry>
        </mxCell>
        <mxCell id="JJgv2_1WWjT4un0S1-dk-61" value="Earth" style="rounded=0;whiteSpace=wrap;html=1;fillColor=#eeeeee;strokeColor=#36393d;" vertex="1" parent="1">
          <mxGeometry x="240" y="170" width="80" height="20" as="geometry" />
        </mxCell>
        <mxCell id="JJgv2_1WWjT4un0S1-dk-130" style="edgeStyle=orthogonalEdgeStyle;rounded=0;orthogonalLoop=1;jettySize=auto;html=1;exitX=1;exitY=0.5;exitDx=0;exitDy=0;endSize=11;endArrow=diamond;endFill=1;" edge="1" parent="1" source="JJgv2_1WWjT4un0S1-dk-63">
          <mxGeometry relative="1" as="geometry">
            <mxPoint x="360" y="210.20000000000005" as="targetPoint" />
          </mxGeometry>
        </mxCell>
        <mxCell id="JJgv2_1WWjT4un0S1-dk-63" value="Orbital" style="rounded=0;whiteSpace=wrap;html=1;fillColor=#eeeeee;strokeColor=#36393d;" vertex="1" parent="1">
          <mxGeometry x="240" y="200" width="80" height="20" as="geometry" />
        </mxCell>
        <mxCell id="JJgv2_1WWjT4un0S1-dk-71" style="edgeStyle=orthogonalEdgeStyle;rounded=0;orthogonalLoop=1;jettySize=auto;html=1;exitX=0.5;exitY=0;exitDx=0;exitDy=0;entryX=0.5;entryY=1;entryDx=0;entryDy=0;endSize=8;endArrow=block;endFill=0;" edge="1" parent="1" source="JJgv2_1WWjT4un0S1-dk-73">
          <mxGeometry relative="1" as="geometry">
            <mxPoint x="281" y="220" as="targetPoint" />
          </mxGeometry>
        </mxCell>
        <mxCell id="JJgv2_1WWjT4un0S1-dk-72" style="edgeStyle=orthogonalEdgeStyle;rounded=0;orthogonalLoop=1;jettySize=auto;html=1;exitX=0;exitY=0.5;exitDx=0;exitDy=0;entryX=0.25;entryY=1;entryDx=0;entryDy=0;endSize=8;endArrow=block;endFill=0;" edge="1" parent="1" source="JJgv2_1WWjT4un0S1-dk-81" target="JJgv2_1WWjT4un0S1-dk-73">
          <mxGeometry relative="1" as="geometry">
            <Array as="points">
              <mxPoint x="261" y="320" />
            </Array>
          </mxGeometry>
        </mxCell>
        <mxCell id="JJgv2_1WWjT4un0S1-dk-73" value="Vanisher" style="rounded=0;whiteSpace=wrap;html=1;fillColor=#eeeeee;strokeColor=#36393d;" vertex="1" parent="1">
          <mxGeometry x="241" y="250" width="80" height="20" as="geometry" />
        </mxCell>
        <mxCell id="JJgv2_1WWjT4un0S1-dk-74" style="edgeStyle=orthogonalEdgeStyle;rounded=0;orthogonalLoop=1;jettySize=auto;html=1;exitX=0.5;exitY=0;exitDx=0;exitDy=0;endArrow=none;endFill=0;" edge="1" parent="1">
          <mxGeometry relative="1" as="geometry">
            <mxPoint x="281" y="240" as="targetPoint" />
            <Array as="points">
              <mxPoint x="191" y="240" />
            </Array>
            <mxPoint x="191" y="250" as="sourcePoint" />
          </mxGeometry>
        </mxCell>
        <mxCell id="JJgv2_1WWjT4un0S1-dk-75" value="Ship" style="rounded=0;whiteSpace=wrap;html=1;fillColor=#eeeeee;strokeColor=#36393d;" vertex="1" parent="1">
          <mxGeometry x="152" y="250" width="80" height="20" as="geometry" />
        </mxCell>
        <mxCell id="JJgv2_1WWjT4un0S1-dk-76" style="edgeStyle=orthogonalEdgeStyle;rounded=0;orthogonalLoop=1;jettySize=auto;html=1;exitX=0.5;exitY=0;exitDx=0;exitDy=0;endArrow=none;endFill=0;" edge="1" parent="1" source="JJgv2_1WWjT4un0S1-dk-78">
          <mxGeometry relative="1" as="geometry">
            <mxPoint x="281" y="240" as="targetPoint" />
            <Array as="points">
              <mxPoint x="386" y="240" />
            </Array>
          </mxGeometry>
        </mxCell>
        <mxCell id="JJgv2_1WWjT4un0S1-dk-77" style="edgeStyle=orthogonalEdgeStyle;rounded=0;orthogonalLoop=1;jettySize=auto;html=1;exitX=0;exitY=0.5;exitDx=0;exitDy=0;entryX=0.25;entryY=1;entryDx=0;entryDy=0;endSize=8;endArrow=block;endFill=0;" edge="1" parent="1" source="JJgv2_1WWjT4un0S1-dk-93" target="JJgv2_1WWjT4un0S1-dk-78">
          <mxGeometry relative="1" as="geometry">
            <mxPoint x="361.0952380952381" y="380" as="sourcePoint" />
          </mxGeometry>
        </mxCell>
        <mxCell id="JJgv2_1WWjT4un0S1-dk-78" value="Destructible" style="rounded=0;whiteSpace=wrap;html=1;fillColor=#eeeeee;strokeColor=#36393d;" vertex="1" parent="1">
          <mxGeometry x="341" y="250" width="80" height="20" as="geometry" />
        </mxCell>
        <mxCell id="JJgv2_1WWjT4un0S1-dk-79" style="edgeStyle=orthogonalEdgeStyle;rounded=0;orthogonalLoop=1;jettySize=auto;html=1;exitX=0;exitY=0.5;exitDx=0;exitDy=0;endArrow=none;endFill=0;" edge="1" parent="1" source="JJgv2_1WWjT4un0S1-dk-80">
          <mxGeometry relative="1" as="geometry">
            <mxPoint x="261" y="290.2380952380952" as="targetPoint" />
          </mxGeometry>
        </mxCell>
        <mxCell id="JJgv2_1WWjT4un0S1-dk-80" value="Fragment" style="rounded=0;whiteSpace=wrap;html=1;fillColor=#eeeeee;strokeColor=#36393d;" vertex="1" parent="1">
          <mxGeometry x="271" y="280" width="80" height="20" as="geometry" />
        </mxCell>
        <mxCell id="JJgv2_1WWjT4un0S1-dk-81" value="Projectile" style="rounded=0;whiteSpace=wrap;html=1;fillColor=#eeeeee;strokeColor=#36393d;" vertex="1" parent="1">
          <mxGeometry x="271" y="310" width="80" height="20" as="geometry" />
        </mxCell>
        <mxCell id="JJgv2_1WWjT4un0S1-dk-84" style="edgeStyle=orthogonalEdgeStyle;rounded=0;orthogonalLoop=1;jettySize=auto;html=1;exitX=0;exitY=0.5;exitDx=0;exitDy=0;endArrow=none;endFill=0;" edge="1" parent="1" source="JJgv2_1WWjT4un0S1-dk-85">
          <mxGeometry relative="1" as="geometry">
            <mxPoint x="361" y="290.2380952380952" as="targetPoint" />
          </mxGeometry>
        </mxCell>
        <mxCell id="JJgv2_1WWjT4un0S1-dk-85" value="GPS" style="rounded=0;whiteSpace=wrap;html=1;fillColor=#eeeeee;strokeColor=#36393d;" vertex="1" parent="1">
          <mxGeometry x="381" y="280" width="80" height="20" as="geometry" />
        </mxCell>
        <mxCell id="JJgv2_1WWjT4un0S1-dk-86" style="edgeStyle=orthogonalEdgeStyle;rounded=0;orthogonalLoop=1;jettySize=auto;html=1;exitX=0;exitY=0.5;exitDx=0;exitDy=0;endArrow=none;endFill=0;" edge="1" parent="1" source="JJgv2_1WWjT4un0S1-dk-87">
          <mxGeometry relative="1" as="geometry">
            <mxPoint x="361" y="320.2380952380952" as="targetPoint" />
          </mxGeometry>
        </mxCell>
        <mxCell id="JJgv2_1WWjT4un0S1-dk-87" value="Hubble" style="rounded=0;whiteSpace=wrap;html=1;fillColor=#eeeeee;strokeColor=#36393d;" vertex="1" parent="1">
          <mxGeometry x="381" y="310" width="80" height="20" as="geometry" />
        </mxCell>
        <mxCell id="JJgv2_1WWjT4un0S1-dk-88" style="edgeStyle=orthogonalEdgeStyle;rounded=0;orthogonalLoop=1;jettySize=auto;html=1;exitX=0;exitY=0.5;exitDx=0;exitDy=0;endArrow=none;endFill=0;" edge="1" parent="1" source="JJgv2_1WWjT4un0S1-dk-89">
          <mxGeometry relative="1" as="geometry">
            <mxPoint x="361" y="350.2380952380952" as="targetPoint" />
          </mxGeometry>
        </mxCell>
        <mxCell id="JJgv2_1WWjT4un0S1-dk-89" value="Dragon" style="rounded=0;whiteSpace=wrap;html=1;fillColor=#eeeeee;strokeColor=#36393d;" vertex="1" parent="1">
          <mxGeometry x="381" y="340" width="80" height="20" as="geometry" />
        </mxCell>
        <mxCell id="JJgv2_1WWjT4un0S1-dk-90" style="edgeStyle=orthogonalEdgeStyle;rounded=0;orthogonalLoop=1;jettySize=auto;html=1;exitX=0;exitY=0.5;exitDx=0;exitDy=0;endArrow=none;endFill=0;" edge="1" parent="1" source="JJgv2_1WWjT4un0S1-dk-91">
          <mxGeometry relative="1" as="geometry">
            <mxPoint x="361" y="380.2380952380952" as="targetPoint" />
          </mxGeometry>
        </mxCell>
        <mxCell id="JJgv2_1WWjT4un0S1-dk-91" value="StarLink" style="rounded=0;whiteSpace=wrap;html=1;fillColor=#eeeeee;strokeColor=#36393d;" vertex="1" parent="1">
          <mxGeometry x="381" y="370" width="80" height="20" as="geometry" />
        </mxCell>
        <mxCell id="JJgv2_1WWjT4un0S1-dk-92" style="edgeStyle=orthogonalEdgeStyle;rounded=0;orthogonalLoop=1;jettySize=auto;html=1;exitX=0;exitY=0.5;exitDx=0;exitDy=0;entryX=0.25;entryY=1;entryDx=0;entryDy=0;endArrow=block;endFill=0;endSize=8;" edge="1" parent="1" source="JJgv2_1WWjT4un0S1-dk-100">
          <mxGeometry relative="1" as="geometry">
            <Array as="points">
              <mxPoint x="400" y="559" />
            </Array>
            <mxPoint x="408" y="559" as="sourcePoint" />
            <mxPoint x="400" y="420" as="targetPoint" />
          </mxGeometry>
        </mxCell>
        <mxCell id="JJgv2_1WWjT4un0S1-dk-93" value="Part" style="rounded=0;whiteSpace=wrap;html=1;fillColor=#eeeeee;strokeColor=#36393d;" vertex="1" parent="1">
          <mxGeometry x="381" y="400" width="80" height="20" as="geometry" />
        </mxCell>
        <mxCell id="JJgv2_1WWjT4un0S1-dk-139" style="edgeStyle=orthogonalEdgeStyle;rounded=0;orthogonalLoop=1;jettySize=auto;html=1;exitX=0;exitY=0.5;exitDx=0;exitDy=0;endArrow=none;endFill=0;" edge="1" parent="1" source="JJgv2_1WWjT4un0S1-dk-95">
          <mxGeometry relative="1" as="geometry">
            <mxPoint x="400" y="469.9677419354839" as="targetPoint" />
          </mxGeometry>
        </mxCell>
        <mxCell id="JJgv2_1WWjT4un0S1-dk-95" value="GPSCenter" style="rounded=0;whiteSpace=wrap;html=1;fillColor=#eeeeee;strokeColor=#36393d;" vertex="1" parent="1">
          <mxGeometry x="411" y="460" width="80" height="20" as="geometry" />
        </mxCell>
        <mxCell id="JJgv2_1WWjT4un0S1-dk-138" style="edgeStyle=orthogonalEdgeStyle;rounded=0;orthogonalLoop=1;jettySize=auto;html=1;exitX=0;exitY=0.5;exitDx=0;exitDy=0;endArrow=none;endFill=0;" edge="1" parent="1" source="JJgv2_1WWjT4un0S1-dk-97">
          <mxGeometry relative="1" as="geometry">
            <mxPoint x="400" y="500.20000000000005" as="targetPoint" />
          </mxGeometry>
        </mxCell>
        <mxCell id="JJgv2_1WWjT4un0S1-dk-97" value="GPSLeft" style="rounded=0;whiteSpace=wrap;html=1;fillColor=#eeeeee;strokeColor=#36393d;" vertex="1" parent="1">
          <mxGeometry x="411" y="490" width="80" height="20" as="geometry" />
        </mxCell>
        <mxCell id="JJgv2_1WWjT4un0S1-dk-137" style="edgeStyle=orthogonalEdgeStyle;rounded=0;orthogonalLoop=1;jettySize=auto;html=1;exitX=0;exitY=0.5;exitDx=0;exitDy=0;endArrow=none;endFill=0;" edge="1" parent="1" source="JJgv2_1WWjT4un0S1-dk-98">
          <mxGeometry relative="1" as="geometry">
            <mxPoint x="400" y="530.2" as="targetPoint" />
          </mxGeometry>
        </mxCell>
        <mxCell id="JJgv2_1WWjT4un0S1-dk-98" value="GPSRight" style="rounded=0;whiteSpace=wrap;html=1;fillColor=#eeeeee;strokeColor=#36393d;" vertex="1" parent="1">
          <mxGeometry x="411" y="520" width="80" height="20" as="geometry" />
        </mxCell>
        <mxCell id="JJgv2_1WWjT4un0S1-dk-100" value="all other parts of destructibles" style="text;html=1;strokeColor=none;fillColor=none;align=center;verticalAlign=middle;whiteSpace=wrap;rounded=0;" vertex="1" parent="1">
          <mxGeometry x="409" y="544" width="100" height="30" as="geometry" />
        </mxCell>
        <mxCell id="JJgv2_1WWjT4un0S1-dk-125" value="Angle" style="rounded=0;whiteSpace=wrap;html=1;fillColor=#eeeeee;strokeColor=#36393d;" vertex="1" parent="1">
          <mxGeometry x="350" y="105" width="80" height="20" as="geometry" />
        </mxCell>
        <mxCell id="JJgv2_1WWjT4un0S1-dk-126" value="Position" style="rounded=0;whiteSpace=wrap;html=1;fillColor=#eeeeee;strokeColor=#36393d;" vertex="1" parent="1">
          <mxGeometry x="350" y="135" width="80" height="20" as="geometry" />
        </mxCell>
        <mxCell id="JJgv2_1WWjT4un0S1-dk-127" value="1" style="text;html=1;strokeColor=none;fillColor=none;align=center;verticalAlign=middle;whiteSpace=wrap;rounded=0;fontSize=11;" vertex="1" parent="1">
          <mxGeometry x="302" y="91" width="60" height="30" as="geometry" />
        </mxCell>
        <mxCell id="JJgv2_1WWjT4un0S1-dk-128" value="1" style="text;html=1;strokeColor=none;fillColor=none;align=center;verticalAlign=middle;whiteSpace=wrap;rounded=0;fontSize=11;" vertex="1" parent="1">
          <mxGeometry x="302" y="123" width="60" height="30" as="geometry" />
        </mxCell>
        <mxCell id="JJgv2_1WWjT4un0S1-dk-129" value="Velocity" style="rounded=0;whiteSpace=wrap;html=1;fillColor=#eeeeee;strokeColor=#36393d;" vertex="1" parent="1">
          <mxGeometry x="360" y="200" width="80" height="20" as="geometry" />
        </mxCell>
        <mxCell id="JJgv2_1WWjT4un0S1-dk-131" value="1" style="text;html=1;strokeColor=none;fillColor=none;align=center;verticalAlign=middle;whiteSpace=wrap;rounded=0;fontSize=11;" vertex="1" parent="1">
          <mxGeometry x="314" y="188" width="60" height="30" as="geometry" />
        </mxCell>
        <mxCell id="JJgv2_1WWjT4un0S1-dk-140" style="edgeStyle=orthogonalEdgeStyle;rounded=0;orthogonalLoop=1;jettySize=auto;html=1;exitX=0;exitY=0.5;exitDx=0;exitDy=0;endArrow=none;endFill=0;" edge="1" parent="1" source="JJgv2_1WWjT4un0S1-dk-136">
          <mxGeometry relative="1" as="geometry">
            <mxPoint x="400" y="439.9677419354839" as="targetPoint" />
          </mxGeometry>
        </mxCell>
        <mxCell id="JJgv2_1WWjT4un0S1-dk-136" value="Sputnik" style="rounded=0;whiteSpace=wrap;html=1;fillColor=#eeeeee;strokeColor=#36393d;" vertex="1" parent="1">
          <mxGeometry x="411" y="430" width="80" height="20" as="geometry" />
        </mxCell>
        <mxCell id="JJgv2_1WWjT4un0S1-dk-141" value="&lt;font style=&quot;font-size: 9px;&quot;&gt;(since it explodes into only fragments)&lt;/font&gt;" style="text;html=1;strokeColor=none;fillColor=none;align=center;verticalAlign=middle;whiteSpace=wrap;rounded=0;" vertex="1" parent="1">
          <mxGeometry x="491" y="425" width="100" height="30" as="geometry" />
        </mxCell>
        <mxCell id="JJgv2_1WWjT4un0S1-dk-142" value="Simulation" style="swimlane;fontStyle=1;align=center;verticalAlign=top;childLayout=stackLayout;horizontal=1;startSize=26;horizontalStack=0;resizeParent=1;resizeParentMax=0;resizeLast=0;collapsible=1;marginBottom=0;whiteSpace=wrap;html=1;" vertex="1" parent="1">
          <mxGeometry x="40" y="720" width="160" height="120" as="geometry" />
        </mxCell>
        <mxCell id="JJgv2_1WWjT4un0S1-dk-143" value="+ field: type" style="text;strokeColor=none;fillColor=none;align=left;verticalAlign=top;spacingLeft=4;spacingRight=4;overflow=hidden;rotatable=0;points=[[0,0.5],[1,0.5]];portConstraint=eastwest;whiteSpace=wrap;html=1;" vertex="1" parent="JJgv2_1WWjT4un0S1-dk-142">
          <mxGeometry y="26" width="160" height="54" as="geometry" />
        </mxCell>
        <mxCell id="JJgv2_1WWjT4un0S1-dk-144" value="" style="line;strokeWidth=1;fillColor=none;align=left;verticalAlign=middle;spacingTop=-1;spacingLeft=3;spacingRight=3;rotatable=0;labelPosition=right;points=[];portConstraint=eastwest;strokeColor=inherit;" vertex="1" parent="JJgv2_1WWjT4un0S1-dk-142">
          <mxGeometry y="80" width="160" height="8" as="geometry" />
        </mxCell>
        <mxCell id="JJgv2_1WWjT4un0S1-dk-145" value="+ method(type): type" style="text;strokeColor=none;fillColor=none;align=left;verticalAlign=top;spacingLeft=4;spacingRight=4;overflow=hidden;rotatable=0;points=[[0,0.5],[1,0.5]];portConstraint=eastwest;whiteSpace=wrap;html=1;" vertex="1" parent="JJgv2_1WWjT4un0S1-dk-142">
          <mxGeometry y="88" width="160" height="32" as="geometry" />
        </mxCell>
        <mxCell id="JJgv2_1WWjT4un0S1-dk-146" value="Star" style="swimlane;fontStyle=1;align=center;verticalAlign=top;childLayout=stackLayout;horizontal=1;startSize=26;horizontalStack=0;resizeParent=1;resizeParentMax=0;resizeLast=0;collapsible=1;marginBottom=0;whiteSpace=wrap;html=1;" vertex="1" parent="1">
          <mxGeometry x="40" y="880" width="160" height="120" as="geometry" />
        </mxCell>
        <mxCell id="JJgv2_1WWjT4un0S1-dk-147" value="+ field: type" style="text;strokeColor=none;fillColor=none;align=left;verticalAlign=top;spacingLeft=4;spacingRight=4;overflow=hidden;rotatable=0;points=[[0,0.5],[1,0.5]];portConstraint=eastwest;whiteSpace=wrap;html=1;" vertex="1" parent="JJgv2_1WWjT4un0S1-dk-146">
          <mxGeometry y="26" width="160" height="54" as="geometry" />
        </mxCell>
        <mxCell id="JJgv2_1WWjT4un0S1-dk-148" value="" style="line;strokeWidth=1;fillColor=none;align=left;verticalAlign=middle;spacingTop=-1;spacingLeft=3;spacingRight=3;rotatable=0;labelPosition=right;points=[];portConstraint=eastwest;strokeColor=inherit;" vertex="1" parent="JJgv2_1WWjT4un0S1-dk-146">
          <mxGeometry y="80" width="160" height="8" as="geometry" />
        </mxCell>
        <mxCell id="JJgv2_1WWjT4un0S1-dk-149" value="+ method(type): type" style="text;strokeColor=none;fillColor=none;align=left;verticalAlign=top;spacingLeft=4;spacingRight=4;overflow=hidden;rotatable=0;points=[[0,0.5],[1,0.5]];portConstraint=eastwest;whiteSpace=wrap;html=1;" vertex="1" parent="JJgv2_1WWjT4un0S1-dk-146">
          <mxGeometry y="88" width="160" height="32" as="geometry" />
        </mxCell>
        <mxCell id="JJgv2_1WWjT4un0S1-dk-150" value="PhysicsObject" style="swimlane;fontStyle=1;align=center;verticalAlign=top;childLayout=stackLayout;horizontal=1;startSize=26;horizontalStack=0;resizeParent=1;resizeParentMax=0;resizeLast=0;collapsible=1;marginBottom=0;whiteSpace=wrap;html=1;" vertex="1" parent="1">
          <mxGeometry x="240" y="720" width="160" height="120" as="geometry" />
        </mxCell>
        <mxCell id="JJgv2_1WWjT4un0S1-dk-151" value="+ field: type" style="text;strokeColor=none;fillColor=none;align=left;verticalAlign=top;spacingLeft=4;spacingRight=4;overflow=hidden;rotatable=0;points=[[0,0.5],[1,0.5]];portConstraint=eastwest;whiteSpace=wrap;html=1;" vertex="1" parent="JJgv2_1WWjT4un0S1-dk-150">
          <mxGeometry y="26" width="160" height="54" as="geometry" />
        </mxCell>
        <mxCell id="JJgv2_1WWjT4un0S1-dk-152" value="" style="line;strokeWidth=1;fillColor=none;align=left;verticalAlign=middle;spacingTop=-1;spacingLeft=3;spacingRight=3;rotatable=0;labelPosition=right;points=[];portConstraint=eastwest;strokeColor=inherit;" vertex="1" parent="JJgv2_1WWjT4un0S1-dk-150">
          <mxGeometry y="80" width="160" height="8" as="geometry" />
        </mxCell>
        <mxCell id="JJgv2_1WWjT4un0S1-dk-153" value="+ method(type): type" style="text;strokeColor=none;fillColor=none;align=left;verticalAlign=top;spacingLeft=4;spacingRight=4;overflow=hidden;rotatable=0;points=[[0,0.5],[1,0.5]];portConstraint=eastwest;whiteSpace=wrap;html=1;" vertex="1" parent="JJgv2_1WWjT4un0S1-dk-150">
          <mxGeometry y="88" width="160" height="32" as="geometry" />
        </mxCell>
        <mxCell id="JJgv2_1WWjT4un0S1-dk-154" value="Angle" style="swimlane;fontStyle=1;align=center;verticalAlign=top;childLayout=stackLayout;horizontal=1;startSize=26;horizontalStack=0;resizeParent=1;resizeParentMax=0;resizeLast=0;collapsible=1;marginBottom=0;whiteSpace=wrap;html=1;" vertex="1" parent="1">
          <mxGeometry x="240" y="880" width="160" height="120" as="geometry" />
        </mxCell>
        <mxCell id="JJgv2_1WWjT4un0S1-dk-155" value="+ field: type" style="text;strokeColor=none;fillColor=none;align=left;verticalAlign=top;spacingLeft=4;spacingRight=4;overflow=hidden;rotatable=0;points=[[0,0.5],[1,0.5]];portConstraint=eastwest;whiteSpace=wrap;html=1;" vertex="1" parent="JJgv2_1WWjT4un0S1-dk-154">
          <mxGeometry y="26" width="160" height="54" as="geometry" />
        </mxCell>
        <mxCell id="JJgv2_1WWjT4un0S1-dk-156" value="" style="line;strokeWidth=1;fillColor=none;align=left;verticalAlign=middle;spacingTop=-1;spacingLeft=3;spacingRight=3;rotatable=0;labelPosition=right;points=[];portConstraint=eastwest;strokeColor=inherit;" vertex="1" parent="JJgv2_1WWjT4un0S1-dk-154">
          <mxGeometry y="80" width="160" height="8" as="geometry" />
        </mxCell>
        <mxCell id="JJgv2_1WWjT4un0S1-dk-157" value="+ method(type): type" style="text;strokeColor=none;fillColor=none;align=left;verticalAlign=top;spacingLeft=4;spacingRight=4;overflow=hidden;rotatable=0;points=[[0,0.5],[1,0.5]];portConstraint=eastwest;whiteSpace=wrap;html=1;" vertex="1" parent="JJgv2_1WWjT4un0S1-dk-154">
          <mxGeometry y="88" width="160" height="32" as="geometry" />
        </mxCell>
        <mxCell id="JJgv2_1WWjT4un0S1-dk-158" value="Position" style="swimlane;fontStyle=1;align=center;verticalAlign=top;childLayout=stackLayout;horizontal=1;startSize=26;horizontalStack=0;resizeParent=1;resizeParentMax=0;resizeLast=0;collapsible=1;marginBottom=0;whiteSpace=wrap;html=1;" vertex="1" parent="1">
          <mxGeometry x="440" y="720" width="160" height="120" as="geometry" />
        </mxCell>
        <mxCell id="JJgv2_1WWjT4un0S1-dk-159" value="+ field: type" style="text;strokeColor=none;fillColor=none;align=left;verticalAlign=top;spacingLeft=4;spacingRight=4;overflow=hidden;rotatable=0;points=[[0,0.5],[1,0.5]];portConstraint=eastwest;whiteSpace=wrap;html=1;" vertex="1" parent="JJgv2_1WWjT4un0S1-dk-158">
          <mxGeometry y="26" width="160" height="54" as="geometry" />
        </mxCell>
        <mxCell id="JJgv2_1WWjT4un0S1-dk-160" value="" style="line;strokeWidth=1;fillColor=none;align=left;verticalAlign=middle;spacingTop=-1;spacingLeft=3;spacingRight=3;rotatable=0;labelPosition=right;points=[];portConstraint=eastwest;strokeColor=inherit;" vertex="1" parent="JJgv2_1WWjT4un0S1-dk-158">
          <mxGeometry y="80" width="160" height="8" as="geometry" />
        </mxCell>
        <mxCell id="JJgv2_1WWjT4un0S1-dk-161" value="+ method(type): type" style="text;strokeColor=none;fillColor=none;align=left;verticalAlign=top;spacingLeft=4;spacingRight=4;overflow=hidden;rotatable=0;points=[[0,0.5],[1,0.5]];portConstraint=eastwest;whiteSpace=wrap;html=1;" vertex="1" parent="JJgv2_1WWjT4un0S1-dk-158">
          <mxGeometry y="88" width="160" height="32" as="geometry" />
        </mxCell>
        <mxCell id="JJgv2_1WWjT4un0S1-dk-162" value="Orbital" style="swimlane;fontStyle=1;align=center;verticalAlign=top;childLayout=stackLayout;horizontal=1;startSize=26;horizontalStack=0;resizeParent=1;resizeParentMax=0;resizeLast=0;collapsible=1;marginBottom=0;whiteSpace=wrap;html=1;" vertex="1" parent="1">
          <mxGeometry x="440" y="880" width="160" height="120" as="geometry" />
        </mxCell>
        <mxCell id="JJgv2_1WWjT4un0S1-dk-163" value="+ field: type" style="text;strokeColor=none;fillColor=none;align=left;verticalAlign=top;spacingLeft=4;spacingRight=4;overflow=hidden;rotatable=0;points=[[0,0.5],[1,0.5]];portConstraint=eastwest;whiteSpace=wrap;html=1;" vertex="1" parent="JJgv2_1WWjT4un0S1-dk-162">
          <mxGeometry y="26" width="160" height="54" as="geometry" />
        </mxCell>
        <mxCell id="JJgv2_1WWjT4un0S1-dk-164" value="" style="line;strokeWidth=1;fillColor=none;align=left;verticalAlign=middle;spacingTop=-1;spacingLeft=3;spacingRight=3;rotatable=0;labelPosition=right;points=[];portConstraint=eastwest;strokeColor=inherit;" vertex="1" parent="JJgv2_1WWjT4un0S1-dk-162">
          <mxGeometry y="80" width="160" height="8" as="geometry" />
        </mxCell>
        <mxCell id="JJgv2_1WWjT4un0S1-dk-165" value="+ method(type): type" style="text;strokeColor=none;fillColor=none;align=left;verticalAlign=top;spacingLeft=4;spacingRight=4;overflow=hidden;rotatable=0;points=[[0,0.5],[1,0.5]];portConstraint=eastwest;whiteSpace=wrap;html=1;" vertex="1" parent="JJgv2_1WWjT4un0S1-dk-162">
          <mxGeometry y="88" width="160" height="32" as="geometry" />
        </mxCell>
        <mxCell id="JJgv2_1WWjT4un0S1-dk-166" value="Velocity" style="swimlane;fontStyle=1;align=center;verticalAlign=top;childLayout=stackLayout;horizontal=1;startSize=26;horizontalStack=0;resizeParent=1;resizeParentMax=0;resizeLast=0;collapsible=1;marginBottom=0;whiteSpace=wrap;html=1;" vertex="1" parent="1">
          <mxGeometry x="640" y="720" width="160" height="120" as="geometry" />
        </mxCell>
        <mxCell id="JJgv2_1WWjT4un0S1-dk-167" value="+ field: type" style="text;strokeColor=none;fillColor=none;align=left;verticalAlign=top;spacingLeft=4;spacingRight=4;overflow=hidden;rotatable=0;points=[[0,0.5],[1,0.5]];portConstraint=eastwest;whiteSpace=wrap;html=1;" vertex="1" parent="JJgv2_1WWjT4un0S1-dk-166">
          <mxGeometry y="26" width="160" height="54" as="geometry" />
        </mxCell>
        <mxCell id="JJgv2_1WWjT4un0S1-dk-168" value="" style="line;strokeWidth=1;fillColor=none;align=left;verticalAlign=middle;spacingTop=-1;spacingLeft=3;spacingRight=3;rotatable=0;labelPosition=right;points=[];portConstraint=eastwest;strokeColor=inherit;" vertex="1" parent="JJgv2_1WWjT4un0S1-dk-166">
          <mxGeometry y="80" width="160" height="8" as="geometry" />
        </mxCell>
        <mxCell id="JJgv2_1WWjT4un0S1-dk-169" value="+ method(type): type" style="text;strokeColor=none;fillColor=none;align=left;verticalAlign=top;spacingLeft=4;spacingRight=4;overflow=hidden;rotatable=0;points=[[0,0.5],[1,0.5]];portConstraint=eastwest;whiteSpace=wrap;html=1;" vertex="1" parent="JJgv2_1WWjT4un0S1-dk-166">
          <mxGeometry y="88" width="160" height="32" as="geometry" />
        </mxCell>
        <mxCell id="JJgv2_1WWjT4un0S1-dk-170" value="Ship" style="swimlane;fontStyle=1;align=center;verticalAlign=top;childLayout=stackLayout;horizontal=1;startSize=26;horizontalStack=0;resizeParent=1;resizeParentMax=0;resizeLast=0;collapsible=1;marginBottom=0;whiteSpace=wrap;html=1;" vertex="1" parent="1">
          <mxGeometry x="640" y="880" width="160" height="120" as="geometry" />
        </mxCell>
        <mxCell id="JJgv2_1WWjT4un0S1-dk-171" value="+ field: type" style="text;strokeColor=none;fillColor=none;align=left;verticalAlign=top;spacingLeft=4;spacingRight=4;overflow=hidden;rotatable=0;points=[[0,0.5],[1,0.5]];portConstraint=eastwest;whiteSpace=wrap;html=1;" vertex="1" parent="JJgv2_1WWjT4un0S1-dk-170">
          <mxGeometry y="26" width="160" height="54" as="geometry" />
        </mxCell>
        <mxCell id="JJgv2_1WWjT4un0S1-dk-172" value="" style="line;strokeWidth=1;fillColor=none;align=left;verticalAlign=middle;spacingTop=-1;spacingLeft=3;spacingRight=3;rotatable=0;labelPosition=right;points=[];portConstraint=eastwest;strokeColor=inherit;" vertex="1" parent="JJgv2_1WWjT4un0S1-dk-170">
          <mxGeometry y="80" width="160" height="8" as="geometry" />
        </mxCell>
        <mxCell id="JJgv2_1WWjT4un0S1-dk-173" value="+ method(type): type" style="text;strokeColor=none;fillColor=none;align=left;verticalAlign=top;spacingLeft=4;spacingRight=4;overflow=hidden;rotatable=0;points=[[0,0.5],[1,0.5]];portConstraint=eastwest;whiteSpace=wrap;html=1;" vertex="1" parent="JJgv2_1WWjT4un0S1-dk-170">
          <mxGeometry y="88" width="160" height="32" as="geometry" />
        </mxCell>
        <mxCell id="JJgv2_1WWjT4un0S1-dk-174" value="Vanisher" style="swimlane;fontStyle=1;align=center;verticalAlign=top;childLayout=stackLayout;horizontal=1;startSize=26;horizontalStack=0;resizeParent=1;resizeParentMax=0;resizeLast=0;collapsible=1;marginBottom=0;whiteSpace=wrap;html=1;" vertex="1" parent="1">
          <mxGeometry x="40" y="1040" width="160" height="120" as="geometry" />
        </mxCell>
        <mxCell id="JJgv2_1WWjT4un0S1-dk-175" value="+ field: type" style="text;strokeColor=none;fillColor=none;align=left;verticalAlign=top;spacingLeft=4;spacingRight=4;overflow=hidden;rotatable=0;points=[[0,0.5],[1,0.5]];portConstraint=eastwest;whiteSpace=wrap;html=1;" vertex="1" parent="JJgv2_1WWjT4un0S1-dk-174">
          <mxGeometry y="26" width="160" height="54" as="geometry" />
        </mxCell>
        <mxCell id="JJgv2_1WWjT4un0S1-dk-176" value="" style="line;strokeWidth=1;fillColor=none;align=left;verticalAlign=middle;spacingTop=-1;spacingLeft=3;spacingRight=3;rotatable=0;labelPosition=right;points=[];portConstraint=eastwest;strokeColor=inherit;" vertex="1" parent="JJgv2_1WWjT4un0S1-dk-174">
          <mxGeometry y="80" width="160" height="8" as="geometry" />
        </mxCell>
        <mxCell id="JJgv2_1WWjT4un0S1-dk-177" value="+ method(type): type" style="text;strokeColor=none;fillColor=none;align=left;verticalAlign=top;spacingLeft=4;spacingRight=4;overflow=hidden;rotatable=0;points=[[0,0.5],[1,0.5]];portConstraint=eastwest;whiteSpace=wrap;html=1;" vertex="1" parent="JJgv2_1WWjT4un0S1-dk-174">
          <mxGeometry y="88" width="160" height="32" as="geometry" />
        </mxCell>
        <mxCell id="JJgv2_1WWjT4un0S1-dk-178" value="Fragment" style="swimlane;fontStyle=1;align=center;verticalAlign=top;childLayout=stackLayout;horizontal=1;startSize=26;horizontalStack=0;resizeParent=1;resizeParentMax=0;resizeLast=0;collapsible=1;marginBottom=0;whiteSpace=wrap;html=1;" vertex="1" parent="1">
          <mxGeometry x="240" y="1040" width="160" height="120" as="geometry" />
        </mxCell>
        <mxCell id="JJgv2_1WWjT4un0S1-dk-179" value="+ field: type" style="text;strokeColor=none;fillColor=none;align=left;verticalAlign=top;spacingLeft=4;spacingRight=4;overflow=hidden;rotatable=0;points=[[0,0.5],[1,0.5]];portConstraint=eastwest;whiteSpace=wrap;html=1;" vertex="1" parent="JJgv2_1WWjT4un0S1-dk-178">
          <mxGeometry y="26" width="160" height="54" as="geometry" />
        </mxCell>
        <mxCell id="JJgv2_1WWjT4un0S1-dk-180" value="" style="line;strokeWidth=1;fillColor=none;align=left;verticalAlign=middle;spacingTop=-1;spacingLeft=3;spacingRight=3;rotatable=0;labelPosition=right;points=[];portConstraint=eastwest;strokeColor=inherit;" vertex="1" parent="JJgv2_1WWjT4un0S1-dk-178">
          <mxGeometry y="80" width="160" height="8" as="geometry" />
        </mxCell>
        <mxCell id="JJgv2_1WWjT4un0S1-dk-181" value="+ method(type): type" style="text;strokeColor=none;fillColor=none;align=left;verticalAlign=top;spacingLeft=4;spacingRight=4;overflow=hidden;rotatable=0;points=[[0,0.5],[1,0.5]];portConstraint=eastwest;whiteSpace=wrap;html=1;" vertex="1" parent="JJgv2_1WWjT4un0S1-dk-178">
          <mxGeometry y="88" width="160" height="32" as="geometry" />
        </mxCell>
        <mxCell id="JJgv2_1WWjT4un0S1-dk-182" value="Projectile" style="swimlane;fontStyle=1;align=center;verticalAlign=top;childLayout=stackLayout;horizontal=1;startSize=26;horizontalStack=0;resizeParent=1;resizeParentMax=0;resizeLast=0;collapsible=1;marginBottom=0;whiteSpace=wrap;html=1;" vertex="1" parent="1">
          <mxGeometry x="440" y="1040" width="160" height="120" as="geometry" />
        </mxCell>
        <mxCell id="JJgv2_1WWjT4un0S1-dk-183" value="+ field: type" style="text;strokeColor=none;fillColor=none;align=left;verticalAlign=top;spacingLeft=4;spacingRight=4;overflow=hidden;rotatable=0;points=[[0,0.5],[1,0.5]];portConstraint=eastwest;whiteSpace=wrap;html=1;" vertex="1" parent="JJgv2_1WWjT4un0S1-dk-182">
          <mxGeometry y="26" width="160" height="54" as="geometry" />
        </mxCell>
        <mxCell id="JJgv2_1WWjT4un0S1-dk-184" value="" style="line;strokeWidth=1;fillColor=none;align=left;verticalAlign=middle;spacingTop=-1;spacingLeft=3;spacingRight=3;rotatable=0;labelPosition=right;points=[];portConstraint=eastwest;strokeColor=inherit;" vertex="1" parent="JJgv2_1WWjT4un0S1-dk-182">
          <mxGeometry y="80" width="160" height="8" as="geometry" />
        </mxCell>
        <mxCell id="JJgv2_1WWjT4un0S1-dk-185" value="+ method(type): type" style="text;strokeColor=none;fillColor=none;align=left;verticalAlign=top;spacingLeft=4;spacingRight=4;overflow=hidden;rotatable=0;points=[[0,0.5],[1,0.5]];portConstraint=eastwest;whiteSpace=wrap;html=1;" vertex="1" parent="JJgv2_1WWjT4un0S1-dk-182">
          <mxGeometry y="88" width="160" height="32" as="geometry" />
        </mxCell>
        <mxCell id="JJgv2_1WWjT4un0S1-dk-186" value="Destructible" style="swimlane;fontStyle=1;align=center;verticalAlign=top;childLayout=stackLayout;horizontal=1;startSize=26;horizontalStack=0;resizeParent=1;resizeParentMax=0;resizeLast=0;collapsible=1;marginBottom=0;whiteSpace=wrap;html=1;" vertex="1" parent="1">
          <mxGeometry x="640" y="1040" width="160" height="120" as="geometry" />
        </mxCell>
        <mxCell id="JJgv2_1WWjT4un0S1-dk-187" value="+ field: type" style="text;strokeColor=none;fillColor=none;align=left;verticalAlign=top;spacingLeft=4;spacingRight=4;overflow=hidden;rotatable=0;points=[[0,0.5],[1,0.5]];portConstraint=eastwest;whiteSpace=wrap;html=1;" vertex="1" parent="JJgv2_1WWjT4un0S1-dk-186">
          <mxGeometry y="26" width="160" height="54" as="geometry" />
        </mxCell>
        <mxCell id="JJgv2_1WWjT4un0S1-dk-188" value="" style="line;strokeWidth=1;fillColor=none;align=left;verticalAlign=middle;spacingTop=-1;spacingLeft=3;spacingRight=3;rotatable=0;labelPosition=right;points=[];portConstraint=eastwest;strokeColor=inherit;" vertex="1" parent="JJgv2_1WWjT4un0S1-dk-186">
          <mxGeometry y="80" width="160" height="8" as="geometry" />
        </mxCell>
        <mxCell id="JJgv2_1WWjT4un0S1-dk-189" value="+ method(type): type" style="text;strokeColor=none;fillColor=none;align=left;verticalAlign=top;spacingLeft=4;spacingRight=4;overflow=hidden;rotatable=0;points=[[0,0.5],[1,0.5]];portConstraint=eastwest;whiteSpace=wrap;html=1;" vertex="1" parent="JJgv2_1WWjT4un0S1-dk-186">
          <mxGeometry y="88" width="160" height="32" as="geometry" />
        </mxCell>
        <mxCell id="JJgv2_1WWjT4un0S1-dk-190" value="GPS" style="swimlane;fontStyle=1;align=center;verticalAlign=top;childLayout=stackLayout;horizontal=1;startSize=26;horizontalStack=0;resizeParent=1;resizeParentMax=0;resizeLast=0;collapsible=1;marginBottom=0;whiteSpace=wrap;html=1;" vertex="1" parent="1">
          <mxGeometry x="40" y="1200" width="160" height="120" as="geometry" />
        </mxCell>
        <mxCell id="JJgv2_1WWjT4un0S1-dk-191" value="+ field: type" style="text;strokeColor=none;fillColor=none;align=left;verticalAlign=top;spacingLeft=4;spacingRight=4;overflow=hidden;rotatable=0;points=[[0,0.5],[1,0.5]];portConstraint=eastwest;whiteSpace=wrap;html=1;" vertex="1" parent="JJgv2_1WWjT4un0S1-dk-190">
          <mxGeometry y="26" width="160" height="54" as="geometry" />
        </mxCell>
        <mxCell id="JJgv2_1WWjT4un0S1-dk-192" value="" style="line;strokeWidth=1;fillColor=none;align=left;verticalAlign=middle;spacingTop=-1;spacingLeft=3;spacingRight=3;rotatable=0;labelPosition=right;points=[];portConstraint=eastwest;strokeColor=inherit;" vertex="1" parent="JJgv2_1WWjT4un0S1-dk-190">
          <mxGeometry y="80" width="160" height="8" as="geometry" />
        </mxCell>
        <mxCell id="JJgv2_1WWjT4un0S1-dk-193" value="+ method(type): type" style="text;strokeColor=none;fillColor=none;align=left;verticalAlign=top;spacingLeft=4;spacingRight=4;overflow=hidden;rotatable=0;points=[[0,0.5],[1,0.5]];portConstraint=eastwest;whiteSpace=wrap;html=1;" vertex="1" parent="JJgv2_1WWjT4un0S1-dk-190">
          <mxGeometry y="88" width="160" height="32" as="geometry" />
        </mxCell>
        <mxCell id="JJgv2_1WWjT4un0S1-dk-194" value="Part" style="swimlane;fontStyle=1;align=center;verticalAlign=top;childLayout=stackLayout;horizontal=1;startSize=26;horizontalStack=0;resizeParent=1;resizeParentMax=0;resizeLast=0;collapsible=1;marginBottom=0;whiteSpace=wrap;html=1;" vertex="1" parent="1">
          <mxGeometry x="241" y="1200" width="160" height="120" as="geometry" />
        </mxCell>
        <mxCell id="JJgv2_1WWjT4un0S1-dk-195" value="+ field: type" style="text;strokeColor=none;fillColor=none;align=left;verticalAlign=top;spacingLeft=4;spacingRight=4;overflow=hidden;rotatable=0;points=[[0,0.5],[1,0.5]];portConstraint=eastwest;whiteSpace=wrap;html=1;" vertex="1" parent="JJgv2_1WWjT4un0S1-dk-194">
          <mxGeometry y="26" width="160" height="54" as="geometry" />
        </mxCell>
        <mxCell id="JJgv2_1WWjT4un0S1-dk-196" value="" style="line;strokeWidth=1;fillColor=none;align=left;verticalAlign=middle;spacingTop=-1;spacingLeft=3;spacingRight=3;rotatable=0;labelPosition=right;points=[];portConstraint=eastwest;strokeColor=inherit;" vertex="1" parent="JJgv2_1WWjT4un0S1-dk-194">
          <mxGeometry y="80" width="160" height="8" as="geometry" />
        </mxCell>
        <mxCell id="JJgv2_1WWjT4un0S1-dk-197" value="+ method(type): type" style="text;strokeColor=none;fillColor=none;align=left;verticalAlign=top;spacingLeft=4;spacingRight=4;overflow=hidden;rotatable=0;points=[[0,0.5],[1,0.5]];portConstraint=eastwest;whiteSpace=wrap;html=1;" vertex="1" parent="JJgv2_1WWjT4un0S1-dk-194">
          <mxGeometry y="88" width="160" height="32" as="geometry" />
        </mxCell>
        <mxCell id="JJgv2_1WWjT4un0S1-dk-198" value="Sputnik" style="swimlane;fontStyle=1;align=center;verticalAlign=top;childLayout=stackLayout;horizontal=1;startSize=26;horizontalStack=0;resizeParent=1;resizeParentMax=0;resizeLast=0;collapsible=1;marginBottom=0;whiteSpace=wrap;html=1;" vertex="1" parent="1">
          <mxGeometry x="440" y="1200" width="160" height="120" as="geometry" />
        </mxCell>
        <mxCell id="JJgv2_1WWjT4un0S1-dk-199" value="+ field: type" style="text;strokeColor=none;fillColor=none;align=left;verticalAlign=top;spacingLeft=4;spacingRight=4;overflow=hidden;rotatable=0;points=[[0,0.5],[1,0.5]];portConstraint=eastwest;whiteSpace=wrap;html=1;" vertex="1" parent="JJgv2_1WWjT4un0S1-dk-198">
          <mxGeometry y="26" width="160" height="54" as="geometry" />
        </mxCell>
        <mxCell id="JJgv2_1WWjT4un0S1-dk-200" value="" style="line;strokeWidth=1;fillColor=none;align=left;verticalAlign=middle;spacingTop=-1;spacingLeft=3;spacingRight=3;rotatable=0;labelPosition=right;points=[];portConstraint=eastwest;strokeColor=inherit;" vertex="1" parent="JJgv2_1WWjT4un0S1-dk-198">
          <mxGeometry y="80" width="160" height="8" as="geometry" />
        </mxCell>
        <mxCell id="JJgv2_1WWjT4un0S1-dk-201" value="+ method(type): type" style="text;strokeColor=none;fillColor=none;align=left;verticalAlign=top;spacingLeft=4;spacingRight=4;overflow=hidden;rotatable=0;points=[[0,0.5],[1,0.5]];portConstraint=eastwest;whiteSpace=wrap;html=1;" vertex="1" parent="JJgv2_1WWjT4un0S1-dk-198">
          <mxGeometry y="88" width="160" height="32" as="geometry" />
        </mxCell>
        <mxCell id="JJgv2_1WWjT4un0S1-dk-208" style="edgeStyle=orthogonalEdgeStyle;rounded=0;orthogonalLoop=1;jettySize=auto;html=1;exitX=1;exitY=0;exitDx=0;exitDy=0;entryX=0;entryY=0.5;entryDx=0;entryDy=0;endSize=11;endArrow=diamond;endFill=1;" edge="1" parent="1" source="JJgv2_1WWjT4un0S1-dk-202" target="JJgv2_1WWjT4un0S1-dk-207">
          <mxGeometry relative="1" as="geometry">
            <Array as="points">
              <mxPoint x="210" y="1360" />
              <mxPoint x="210" y="1360" />
            </Array>
          </mxGeometry>
        </mxCell>
        <mxCell id="JJgv2_1WWjT4un0S1-dk-202" value="Simulation" style="swimlane;fontStyle=1;align=center;verticalAlign=top;childLayout=stackLayout;horizontal=1;startSize=26;horizontalStack=0;resizeParent=1;resizeParentMax=0;resizeLast=0;collapsible=1;marginBottom=0;whiteSpace=wrap;html=1;" vertex="1" parent="1">
          <mxGeometry x="40" y="1360" width="160" height="240" as="geometry" />
        </mxCell>
        <mxCell id="JJgv2_1WWjT4un0S1-dk-203" value="- earth : Earth&lt;br&gt;- orbitals[] : Orbital&lt;br&gt;- stars[250] : Star&lt;br&gt;- gout : ogstream&lt;br&gt;- ptUpperRight : Position" style="text;strokeColor=none;fillColor=none;align=left;verticalAlign=top;spacingLeft=4;spacingRight=4;overflow=hidden;rotatable=0;points=[[0,0.5],[1,0.5]];portConstraint=eastwest;whiteSpace=wrap;html=1;" vertex="1" parent="JJgv2_1WWjT4un0S1-dk-202">
          <mxGeometry y="26" width="160" height="94" as="geometry" />
        </mxCell>
        <mxCell id="JJgv2_1WWjT4un0S1-dk-204" value="" style="line;strokeWidth=1;fillColor=none;align=left;verticalAlign=middle;spacingTop=-1;spacingLeft=3;spacingRight=3;rotatable=0;labelPosition=right;points=[];portConstraint=eastwest;strokeColor=inherit;" vertex="1" parent="JJgv2_1WWjT4un0S1-dk-202">
          <mxGeometry y="120" width="160" height="8" as="geometry" />
        </mxCell>
        <mxCell id="JJgv2_1WWjT4un0S1-dk-205" value="+ constructor()&lt;br&gt;+ input(pUI)&lt;br&gt;+ gamePlay()&lt;br&gt;+ display()&lt;br&gt;+ checkCollisions()&lt;br&gt;+ explode(destructible)&lt;br&gt;+ reset()" style="text;strokeColor=none;fillColor=none;align=left;verticalAlign=top;spacingLeft=4;spacingRight=4;overflow=hidden;rotatable=0;points=[[0,0.5],[1,0.5]];portConstraint=eastwest;whiteSpace=wrap;html=1;" vertex="1" parent="JJgv2_1WWjT4un0S1-dk-202">
          <mxGeometry y="128" width="160" height="112" as="geometry" />
        </mxCell>
        <mxCell id="JJgv2_1WWjT4un0S1-dk-207" value="ogstream" style="rounded=0;whiteSpace=wrap;html=1;fillColor=#eeeeee;strokeColor=#36393d;" vertex="1" parent="1">
          <mxGeometry x="280" y="1350" width="80" height="20" as="geometry" />
        </mxCell>
        <mxCell id="JJgv2_1WWjT4un0S1-dk-209" value="1" style="text;html=1;strokeColor=none;fillColor=none;align=center;verticalAlign=middle;whiteSpace=wrap;rounded=0;" vertex="1" parent="1">
          <mxGeometry x="232" y="1338" width="60" height="30" as="geometry" />
        </mxCell>
        <mxCell id="JJgv2_1WWjT4un0S1-dk-211" value="1" style="text;html=1;strokeColor=none;fillColor=none;align=center;verticalAlign=middle;whiteSpace=wrap;rounded=0;fontSize=11;" vertex="1" parent="1">
          <mxGeometry x="417" y="121" width="60" height="30" as="geometry" />
        </mxCell>
        <mxCell id="JJgv2_1WWjT4un0S1-dk-212" value="Position" style="rounded=0;whiteSpace=wrap;html=1;fillColor=#eeeeee;strokeColor=#36393d;" vertex="1" parent="1">
          <mxGeometry x="280" y="1423" width="80" height="20" as="geometry" />
        </mxCell>
        <mxCell id="JJgv2_1WWjT4un0S1-dk-213" value="1" style="text;html=1;strokeColor=none;fillColor=none;align=center;verticalAlign=middle;whiteSpace=wrap;rounded=0;" vertex="1" parent="1">
          <mxGeometry x="232" y="1410" width="60" height="30" as="geometry" />
        </mxCell>
        <mxCell id="JJgv2_1WWjT4un0S1-dk-214" style="edgeStyle=orthogonalEdgeStyle;rounded=0;orthogonalLoop=1;jettySize=auto;html=1;exitX=1;exitY=0.5;exitDx=0;exitDy=0;entryX=0;entryY=0.5;entryDx=0;entryDy=0;endArrow=diamond;endFill=1;endSize=11;" edge="1" parent="1" source="JJgv2_1WWjT4un0S1-dk-203" target="JJgv2_1WWjT4un0S1-dk-212">
          <mxGeometry relative="1" as="geometry" />
        </mxCell>
        <mxCell id="JJgv2_1WWjT4un0S1-dk-215" value="uiInteract" style="rounded=0;whiteSpace=wrap;html=1;fillColor=#eeeeee;strokeColor=#36393d;" vertex="1" parent="1">
          <mxGeometry x="280" y="1470" width="80" height="20" as="geometry" />
        </mxCell>
        <mxCell id="JJgv2_1WWjT4un0S1-dk-216" style="edgeStyle=orthogonalEdgeStyle;rounded=0;orthogonalLoop=1;jettySize=auto;html=1;exitX=0.993;exitY=0.996;exitDx=0;exitDy=0;entryX=0;entryY=0.5;entryDx=0;entryDy=0;exitPerimeter=0;endArrow=open;endFill=0;endSize=11;" edge="1" parent="1" source="JJgv2_1WWjT4un0S1-dk-203" target="JJgv2_1WWjT4un0S1-dk-215">
          <mxGeometry relative="1" as="geometry">
            <Array as="points">
              <mxPoint x="199" y="1480" />
            </Array>
          </mxGeometry>
        </mxCell>
      </root>
    </mxGraphModel>
  </diagram>
</mxfile>
